<svg width="430" height="430" viewBox="0 0 430 430" fill="none" xmlns="http://www.w3.org/2000/svg">
<path d="M320.857 176.119C329.998 178.011 339.375 178.416 348.622 177.317C367.208 175.12 385.207 166.887 399.46 152.634C433.169 118.925 433.169 64.264 399.46 30.556C365.743 -3.161 311.09 -3.153 277.382 30.556C263.167 44.771 254.95 62.708 252.715 81.226C251.601 90.519 251.99 99.957 253.898 109.144" fill="#E1F4F9"/>
<path d="M338.417 182.922C332.194 182.922 325.98 182.285 319.844 181.015L321.871 171.223C330.5 173.01 339.302 173.39 348.033 172.352C366.315 170.19 382.875 162.15 395.925 149.099C411.284 133.74 419.742 113.318 419.742 91.596C419.742 69.873 411.284 49.451 395.925 34.092C364.217 2.385 312.625 2.384 280.918 34.092C267.915 47.095 259.879 63.601 257.679 81.826C256.623 90.632 256.998 99.483 258.793 108.128L249.002 110.161C246.986 100.453 246.565 90.518 247.751 80.631C250.222 60.158 259.246 41.621 273.847 27.02C309.454 -8.587 367.389 -8.586 402.996 27.02C420.244 44.268 429.742 67.201 429.742 91.595C429.742 115.989 420.243 138.922 402.996 156.17C388.341 170.825 369.742 179.855 349.209 182.283C345.618 182.709 342.016 182.922 338.417 182.922Z" fill="#333333"/>
<path d="M395.667 54.315C394.113 54.315 392.583 53.593 391.605 52.237C389.552 49.386 387.241 46.671 384.737 44.167C380.634 40.064 376.029 36.535 371.049 33.678C368.654 32.304 367.826 29.248 369.2 26.853C370.575 24.458 373.63 23.631 376.025 25.004C381.771 28.301 387.081 32.369 391.808 37.096C394.691 39.98 397.352 43.107 399.719 46.393C401.333 48.634 400.824 51.759 398.584 53.372C397.7 54.008 396.678 54.315 395.667 54.315Z" fill="white"/>
<path d="M388.273 144.929C386.993 144.929 385.714 144.441 384.737 143.465C382.784 141.512 382.784 138.346 384.737 136.394C403.637 117.494 409.085 88.369 398.294 63.922C397.179 61.396 398.323 58.444 400.849 57.329C403.377 56.214 406.328 57.358 407.442 59.884C413.502 73.613 415.308 88.708 412.665 103.539C409.96 118.72 402.748 132.526 391.808 143.466C390.832 144.441 389.553 144.929 388.273 144.929Z" fill="white"/>
<path d="M284.711 83.084C293.096 83.084 299.894 76.2863 299.894 67.901C299.894 59.5157 293.096 52.718 284.711 52.718C276.325 52.718 269.528 59.5157 269.528 67.901C269.528 76.2863 276.325 83.084 284.711 83.084Z" fill="#F9E33D"/>
<path d="M362.116 160.488C370.501 160.488 377.299 153.69 377.299 145.305C377.299 136.92 370.501 130.122 362.116 130.122C353.731 130.122 346.933 136.92 346.933 145.305C346.933 153.69 353.731 160.488 362.116 160.488Z" fill="#F9E33D"/>
<path d="M284.711 88.084C279.32 88.084 274.252 85.985 270.439 82.173C262.57 74.303 262.57 61.499 270.439 53.63C274.252 49.818 279.32 47.718 284.711 47.718C290.102 47.718 295.17 49.817 298.982 53.63C302.794 57.442 304.894 62.51 304.894 67.902C304.894 73.293 302.794 78.361 298.982 82.174C295.17 85.984 290.102 88.084 284.711 88.084ZM284.711 57.717C281.991 57.717 279.434 58.776 277.51 60.7C273.54 64.67 273.54 71.131 277.51 75.101C279.433 77.024 281.99 78.083 284.711 78.083C287.431 78.083 289.988 77.024 291.911 75.101C293.835 73.178 294.894 70.621 294.894 67.901C294.894 65.181 293.835 62.624 291.911 60.7C289.988 58.776 287.43 57.717 284.711 57.717Z" fill="#666666"/>
<path d="M362.115 165.479C356.946 165.479 351.779 163.512 347.844 159.577C344.032 155.764 341.932 150.696 341.932 145.305C341.932 139.914 344.032 134.846 347.844 131.034C351.656 127.222 356.724 125.122 362.115 125.122C367.506 125.122 372.574 127.222 376.387 131.034C384.256 138.903 384.256 151.707 376.387 159.577C372.453 163.511 367.283 165.479 362.115 165.479ZM362.115 135.122C359.395 135.122 356.838 136.181 354.915 138.104C352.991 140.028 351.932 142.585 351.932 145.305C351.932 148.025 352.991 150.582 354.915 152.506C358.886 156.476 365.346 156.477 369.316 152.506C373.286 148.536 373.286 142.075 369.316 138.105C367.393 136.181 364.836 135.122 362.115 135.122Z" fill="#666666"/>
<path d="M276.625 146.586C255.898 125.859 255.898 92.134 276.625 71.408L289.639 58.394C310.366 37.667 344.09 37.668 364.817 58.394L371.618 65.195C392.345 85.922 392.345 119.647 371.618 140.373L358.604 153.387C337.877 174.114 304.153 174.113 283.426 153.387L276.625 146.586Z" fill="#8FCDF7"/>
<path d="M55.4729 148.701L49.4909 154.683C46.2099 157.964 46.2099 163.274 49.4829 166.548L69.2289 160.322L55.4729 148.701Z" fill="#F9763D"/>
<path d="M133.374 424.369L96.568 387.562L110.714 381.733L126.332 397.351L133.374 424.369Z" fill="#F9763D"/>
<path d="M195.337 350.214C192.941 352.732 189.233 356.486 184.487 360.835L160.949 337.297L160.941 337.289C163.177 334.413 165.321 331.429 167.32 328.347C176.4 335.946 185.739 343.24 195.337 350.214Z" fill="#158ACC"/>
<path d="M160.949 337.296L184.487 360.834C180.687 364.329 176.224 368.197 171.249 372.119L149.511 350.381C153.448 346.322 157.324 341.942 160.941 337.288L160.949 337.296Z" fill="#53AEF9"/>
<path d="M149.512 350.382L171.25 372.12C166.863 375.576 162.071 379.071 156.99 382.382L136.893 362.285C140.997 358.714 145.285 354.731 149.512 350.382Z" fill="#53AEF9"/>
<path d="M136.892 362.284L156.989 382.381C152.037 385.593 146.795 388.638 141.371 391.285L123.258 373.172C127.263 370.22 131.948 366.557 136.892 362.284Z" fill="#53AEF9"/>
<path d="M123.257 373.172L141.37 391.285C136.494 393.673 131.459 395.748 126.331 397.351L110.713 381.733C110.714 381.733 115.81 378.681 123.257 373.172Z" fill="#53AEF9"/>
<path d="M357.488 131.739L345.181 144.046C330.608 158.619 306.97 158.619 292.397 144.046L285.965 137.614C271.392 123.041 271.392 99.403 285.965 84.83L298.272 72.523C312.845 57.95 336.483 57.95 351.056 72.523L357.488 78.955C372.061 93.529 372.061 117.166 357.488 131.739Z" fill="#D8B86F"/>
<path d="M348.08 122.332L335.773 134.639C321.2 149.212 301.318 152.967 291.375 143.025L286.987 138.637C277.044 128.694 280.8 108.812 295.373 94.239L307.68 81.932C322.253 67.359 342.135 63.604 352.078 73.546L356.466 77.934C366.408 87.876 362.653 107.759 348.08 122.332Z" fill="#F7D789"/>
<path d="M48.263 319.282L42.434 333.428L5.62695 296.621L32.645 303.664L48.263 319.282Z" fill="#F9763D"/>
<path d="M48.2629 319.282L32.6449 303.664C34.2469 298.537 36.3229 293.501 38.7109 288.625L56.8239 306.738C51.3149 314.186 48.2629 319.282 48.2629 319.282Z" fill="#53AEF9"/>
<path d="M79.79 234.651C86.764 244.249 94.05 253.596 101.65 262.676C98.568 264.675 95.584 266.819 92.708 269.055L92.7 269.047L69.162 245.509C73.51 240.763 77.272 237.047 79.79 234.651Z" fill="#158ACC"/>
<path d="M56.824 306.739L38.71 288.625C41.358 283.2 44.402 277.958 47.614 273.007L67.711 293.104C63.439 298.048 59.776 302.733 56.824 306.739Z" fill="#53AEF9"/>
<path d="M92.699 269.047L92.707 269.055C88.053 272.672 83.673 276.548 79.614 280.485L57.876 258.747C61.798 253.772 65.666 249.309 69.161 245.509L92.699 269.047Z" fill="#53AEF9"/>
<path d="M67.712 293.104L47.615 273.007C50.926 267.925 54.421 263.134 57.877 258.747L79.615 280.485C75.265 284.711 71.282 288.999 67.712 293.104Z" fill="#53AEF9"/>
<path d="M328.25 291.906C326.098 291.082 324.054 289.8 322.314 288.061C315.699 281.446 315.706 270.711 322.322 264.095C326.999 259.418 333.744 258.044 339.634 259.998C342.572 250.438 344.761 241.869 346.402 234.644C349.904 219.132 350.82 209.748 350.82 209.748C351.285 206.658 351.537 203.522 351.56 200.386L347.47 175.65C346.066 171.713 344.319 167.875 342.198 164.167L342.19 164.159C320.987 183.516 288.094 182.944 267.577 162.427C247.068 141.918 246.496 109.025 265.853 87.822C262.152 85.709 258.299 83.946 254.339 82.534L229.603 78.444C226.475 78.475 223.369 78.726 220.249 79.176C220.249 79.176 210.857 80.099 195.36 83.601C187.227 85.432 177.43 87.981 166.42 91.483L145.171 98.937L145.163 98.929C118.062 109.351 86.4889 125.1 55.4739 148.699L62.8059 154.887L63.6379 155.597L69.2309 160.32C69.2309 160.32 112.76 136.019 143.806 135.569L143.737 135.638L127.783 151.592L65.4469 213.928C70.0629 220.955 74.8389 227.868 79.7909 234.651C86.7649 244.249 94.0509 253.596 101.651 262.676C111.6 274.579 122.076 286.016 133.033 296.972C143.99 307.929 155.427 318.404 167.322 328.346C176.402 335.945 185.741 343.24 195.339 350.213C202.122 355.15 209.035 359.926 216.069 364.55C216.077 364.558 216.077 364.558 216.084 364.565L278.42 302.229L294.374 286.275L294.42 286.229C293.962 317.267 269.676 360.765 269.676 360.765L275.108 367.189L281.296 374.521C302.873 346.185 317.873 317.36 328.25 291.906ZM229.343 252.437L177.559 200.653L224.636 153.577L276.42 205.361L229.343 252.437Z" fill="#44A1E0"/>
<path d="M323.627 277.391L323.619 277.383L331.073 256.134C334.575 245.124 337.123 235.327 338.955 227.194C338.97 227.118 338.993 227.049 339.008 226.973C341.305 216.818 342.304 206.418 342.052 196.003L341.411 169.588C341.045 168.337 340.64 167.108 340.183 165.903C305.093 178.317 246.343 156.19 264.105 89.825C262.892 89.375 261.656 88.963 260.404 88.597L233.997 87.948C223.582 87.696 213.175 88.688 203.02 90.985C202.951 91.008 202.875 91.023 202.799 91.038C194.666 92.869 184.869 95.418 173.859 98.92L152.61 106.374L152.602 106.366C125.707 116.705 94.416 132.292 63.637 155.594L69.23 160.317C69.23 160.317 112.759 136.016 143.805 135.566L137.312 156.937C138.685 157.273 75.25 223.729 75.25 223.729C79.111 230.001 83.124 236.15 87.313 242.17C93.211 250.693 99.414 258.956 105.93 266.952C113.384 276.116 121.251 284.928 129.483 293.374C130.658 294.58 131.841 295.777 133.031 296.968C134.221 298.158 135.419 299.341 136.625 300.516C145.071 308.749 153.884 316.615 163.047 324.07C171.043 330.586 179.299 336.797 187.821 342.695C193.841 346.869 199.991 350.882 206.262 354.743C206.27 354.751 206.27 354.751 206.277 354.758L272.497 288.538C272.535 289.934 294.425 286.188 294.425 286.188V286.203C294.425 286.218 294.425 286.218 294.417 286.226C294.333 291.773 293.494 297.709 292.166 303.737C291.998 304.485 291.83 305.232 291.647 305.98C291.235 307.704 290.785 309.421 290.304 311.138C290.029 312.13 289.747 313.114 289.457 314.091C286.115 325.276 281.629 336.096 277.776 344.496C277.463 345.19 277.15 345.854 276.853 346.503C276.105 348.105 275.388 349.601 274.709 350.966C274.442 351.538 274.175 352.08 273.916 352.599C273.473 353.499 273.054 354.331 272.657 355.094C272.527 355.361 272.405 355.605 272.275 355.842C272.031 356.33 271.802 356.773 271.581 357.192C270.391 359.481 269.673 360.763 269.673 360.763L274.396 366.356C297.7 335.576 313.288 304.286 323.627 277.391ZM225.979 249.069L180.932 204.022L228.008 156.946L273.055 201.993L225.979 249.069Z" fill="#53AEF9"/>
<path d="M177.155 102.219L162.803 116.571L145.17 98.938L145.162 98.93C151.632 96.443 157.851 94.253 163.733 92.338C164.641 92.04 165.534 91.758 166.419 91.483L177.155 102.219Z" fill="#F9E33D"/>
<path d="M328.25 291.906C326.098 291.082 324.054 289.8 322.314 288.061C315.699 281.446 315.706 270.711 322.322 264.095C326.999 259.418 333.744 258.044 339.634 259.998C339.016 262.035 338.36 264.126 337.658 266.262C335.048 274.273 331.95 282.88 328.25 291.906Z" fill="#F9E33D"/>
<path d="M321.015 173.929C306.12 173.929 291.23 168.261 279.89 156.922L273.089 150.121C250.413 127.445 250.413 90.548 273.089 67.871L286.103 54.857C297.071 43.889 311.677 37.848 327.228 37.848C327.229 37.848 327.228 37.848 327.228 37.848C342.779 37.848 357.384 43.889 368.353 54.858L375.154 61.659C397.83 84.336 397.83 121.232 375.154 143.909L362.14 156.923C350.802 168.259 335.906 173.929 321.015 173.929ZM327.227 47.849C314.347 47.849 302.253 52.849 293.174 61.929L280.16 74.943C261.383 93.72 261.383 124.273 280.16 143.05L286.961 149.851C305.739 168.629 336.293 168.629 355.068 149.851L368.082 136.837C386.859 118.06 386.859 87.507 368.082 68.73L361.281 61.929C352.201 52.85 340.107 47.849 327.227 47.849Z" fill="#666666"/>
<path d="M318.789 159.976C307.482 159.976 296.854 155.575 288.861 147.582L282.429 141.15C265.927 124.648 265.927 97.797 282.429 81.295L294.736 68.988C302.729 60.995 313.357 56.593 324.664 56.593C335.971 56.593 346.599 60.995 354.591 68.988L361.023 75.42C377.525 91.922 377.525 118.773 361.023 135.275L348.716 147.582C340.723 155.574 330.095 159.976 318.789 159.976ZM324.664 66.594C316.029 66.594 307.912 69.956 301.808 76.06L289.501 88.367C276.898 100.97 276.898 121.477 289.501 134.08L295.933 140.512C302.037 146.616 310.154 149.977 318.789 149.977C327.424 149.977 335.541 146.616 341.645 140.512L353.952 128.205C366.555 115.602 366.555 95.095 353.952 82.492L347.52 76.06C341.416 69.955 333.299 66.594 324.664 66.594Z" fill="#666666"/>
<path d="M48.2619 324.281C46.9449 324.281 45.6699 323.76 44.7269 322.818L29.1089 307.199C27.7939 305.884 27.3169 303.948 27.8719 302.172C29.4679 297.063 31.6039 291.765 34.2199 286.425C36.7819 281.177 39.8779 275.745 43.4199 270.285C46.5969 265.411 50.1369 260.491 53.9499 255.652C57.5739 251.055 61.4529 246.504 65.4819 242.123C69.9799 237.215 73.8719 233.38 76.3439 231.028L83.2369 238.273C80.8779 240.517 77.1609 244.18 72.8479 248.886C68.9849 253.087 65.2709 257.444 61.8039 261.841C58.1769 266.445 54.8119 271.12 51.8039 275.736C48.4869 280.849 45.5919 285.926 43.2039 290.818C41.2959 294.714 39.6729 298.565 38.3619 302.308L47.4229 311.37C48.8199 309.299 50.6239 306.713 52.8049 303.764C56.3249 298.989 60.0699 294.3 63.9299 289.834C67.9569 285.204 72.0589 280.855 76.1299 276.898C80.5859 272.576 85.1299 268.61 89.6399 265.106C92.7389 262.697 95.8649 260.468 98.9289 258.481L101.636 262.654L105.194 266.204C104.946 266.452 104.665 266.681 104.371 266.871C101.544 268.704 98.6529 270.767 95.7759 273.003C91.5529 276.284 87.2869 280.009 83.0959 284.074C79.2279 287.834 75.3199 291.978 71.4849 296.387C67.8039 300.646 64.2219 305.131 60.8499 309.706C55.5709 316.843 52.5819 321.804 52.5529 321.853C51.7609 323.173 50.4039 324.056 48.8759 324.244C48.6699 324.269 48.4659 324.281 48.2619 324.281Z" fill="#333333"/>
<path d="M311.426 107.967C310.146 107.967 308.867 107.479 307.89 106.503C305.937 104.55 305.937 101.384 307.89 99.432L322.707 84.615C324.66 82.662 327.825 82.662 329.778 84.615C331.731 86.568 331.731 89.734 329.778 91.686L314.961 106.503C313.985 107.479 312.706 107.967 311.426 107.967Z" fill="#666666"/>
<path d="M327.044 123.585C325.764 123.585 324.485 123.097 323.508 122.121C321.555 120.168 321.555 117.002 323.508 115.05L338.325 100.233C340.279 98.281 343.444 98.281 345.396 100.233C347.349 102.186 347.349 105.351 345.396 107.304L330.579 122.121C329.603 123.097 328.323 123.585 327.044 123.585Z" fill="#666666"/>
<path d="M49.484 171.547C48.204 171.547 46.924 171.059 45.948 170.082C40.73 164.863 40.734 156.369 45.956 151.146L51.938 145.164C53.776 143.327 56.715 143.204 58.7 144.88L72.456 156.501C74.565 158.283 74.831 161.438 73.049 163.547C71.267 165.657 68.112 165.922 66.003 164.14L55.758 155.486L53.027 158.217C51.703 159.541 51.7 161.691 53.019 163.011C54.972 164.964 54.971 168.13 53.019 170.082C52.043 171.059 50.763 171.547 49.484 171.547Z" fill="#333333"/>
<path d="M281.295 374.523L275.313 380.505C272.032 383.786 266.722 383.786 263.448 380.513L269.674 360.767L281.295 374.523Z" fill="#F9763D"/>
<path d="M269.374 387.959C265.947 387.959 262.521 386.656 259.914 384.048C257.961 382.096 257.961 378.93 259.914 376.977C261.866 375.024 265.033 375.023 266.985 376.977C268.306 378.296 270.456 378.292 271.779 376.969L274.51 374.238L265.856 363.993C264.074 361.884 264.34 358.729 266.449 356.947C268.557 355.166 271.713 355.43 273.495 357.54L285.116 371.297C286.793 373.282 286.669 376.221 284.832 378.059L278.85 384.041C276.237 386.653 272.805 387.959 269.374 387.959Z" fill="#333333"/>
<path d="M281.296 379.519C279.825 379.519 278.426 378.871 277.475 377.744L265.856 363.989C264.512 362.398 264.296 360.14 265.312 358.322C265.333 358.285 266.019 357.055 267.147 354.885C267.366 354.47 267.579 354.059 267.805 353.606C267.833 353.549 267.863 353.493 267.893 353.438C267.975 353.288 268.057 353.128 268.134 352.964C268.162 352.904 268.192 352.844 268.223 352.785C268.604 352.053 269.006 351.255 269.431 350.391C269.685 349.883 269.933 349.38 270.181 348.85C270.198 348.814 270.216 348.778 270.233 348.742C270.895 347.409 271.595 345.951 272.324 344.388L272.653 343.676C272.839 343.275 273.029 342.865 273.218 342.444C278.081 331.841 281.928 321.832 284.669 312.66C284.948 311.721 285.221 310.766 285.487 309.805C285.981 308.041 286.404 306.415 286.785 304.82C286.967 304.075 287.128 303.359 287.289 302.642C287.497 301.698 287.69 300.767 287.868 299.849L219.618 368.099C217.855 369.861 215.105 370.033 213.149 368.614C206.073 363.959 199.092 359.129 192.395 354.255C182.796 347.28 173.279 339.852 164.111 332.178C153.429 323.25 143.002 313.797 133.12 304.084C131.914 302.909 130.7 301.711 129.495 300.505C128.29 299.3 127.092 298.087 125.902 296.866C116.207 287.003 106.751 276.573 97.813 265.881C90.206 256.793 82.78 247.273 75.744 237.589C70.856 230.893 65.982 223.852 61.265 216.672C59.964 214.691 60.232 212.068 61.909 210.391L130.189 142.111C102.877 147.409 72.027 164.483 71.666 164.685C69.849 165.698 67.593 165.481 66.003 164.139L52.248 152.52C51.088 151.541 50.436 150.089 50.474 148.572C50.513 147.055 51.237 145.638 52.445 144.719C79.761 123.935 110.352 106.959 143.367 94.261C149.605 91.863 155.936 89.616 162.185 87.581C163.109 87.278 164.027 86.988 164.936 86.706C174.794 83.57 184.671 80.88 194.261 78.722C197.943 77.89 230.936 70.74 253.758 76.333C256.219 76.936 257.84 79.285 257.53 81.8C254.446 106.857 262.903 131.454 280.733 149.283C298.523 167.074 323.07 175.542 348.065 172.507C350.598 172.205 352.949 173.844 353.534 176.323C358.05 195.472 354.033 223.565 351.278 235.744C349.328 244.333 347.018 252.985 344.412 261.464C343.745 263.666 343.087 265.751 342.407 267.82C339.537 276.633 336.328 285.378 332.876 293.8C320.515 324.12 304.498 352.301 285.273 377.549C284.354 378.756 282.937 379.48 281.42 379.518C281.38 379.519 281.338 379.519 281.296 379.519ZM275.688 360.133L281.058 366.485C298.096 343.235 312.4 317.541 323.621 290.016C326.984 281.813 330.106 273.303 332.904 264.711C333.564 262.703 334.199 260.69 334.849 258.544C337.388 250.284 339.632 241.876 341.526 233.534C344.27 221.406 347.083 198.951 344.62 182.88C318.173 184.754 292.537 175.226 273.663 156.353C254.738 137.429 245.216 111.717 247.154 85.197C230.583 82.537 207.975 85.873 196.464 88.476C187.15 90.573 177.553 93.186 167.936 96.246C167.042 96.523 166.174 96.798 165.291 97.087C159.198 99.071 153.032 101.259 146.957 103.595C116.83 115.182 88.787 130.421 63.51 148.938L69.855 154.302C80.505 148.691 116.271 130.966 143.732 130.568C145.727 130.53 147.617 131.746 148.41 133.621C149.203 135.496 148.779 137.664 147.34 139.103L71.87 214.572C75.79 220.44 79.802 226.187 83.828 231.701C90.737 241.211 98.021 250.549 105.483 259.465C114.252 269.954 123.525 280.184 133.049 289.872C134.224 291.078 135.391 292.26 136.567 293.435C137.742 294.611 138.925 295.778 140.115 296.937C149.821 306.478 160.048 315.749 170.527 324.508C179.523 332.038 188.859 339.324 198.277 346.167C203.837 350.213 209.596 354.228 215.442 358.134L290.885 282.692C292.325 281.252 294.493 280.829 296.369 281.623C298.244 282.416 299.451 284.268 299.42 286.304C299.336 291.835 298.54 298.062 297.052 304.814C296.873 305.613 296.698 306.392 296.507 307.171C296.103 308.865 295.648 310.614 295.122 312.488C294.844 313.495 294.553 314.509 294.254 315.515C291.379 325.14 287.366 335.589 282.324 346.581C282.134 347.004 281.928 347.447 281.727 347.881L281.401 348.587C280.63 350.238 279.904 351.753 279.216 353.138C278.938 353.731 278.661 354.294 278.391 354.834C277.959 355.712 277.537 356.549 277.137 357.319C276.999 357.608 276.854 357.89 276.709 358.158C276.463 358.649 276.23 359.098 276.006 359.524C275.896 359.735 275.79 359.938 275.688 360.133Z" fill="#333333"/>
<path d="M126.333 402.351C125.027 402.351 123.749 401.839 122.797 400.887L107.178 385.269C106.089 384.18 105.563 382.649 105.751 381.121C105.94 379.592 106.823 378.236 108.145 377.444C108.192 377.415 113.154 374.427 120.284 369.153C124.862 365.778 129.347 362.196 133.623 358.502C138.02 354.677 142.164 350.769 145.927 346.898C149.988 342.711 153.712 338.445 156.993 334.222C159.228 331.346 161.291 328.454 163.125 325.627L171.516 331.068C169.528 334.133 167.298 337.259 164.89 340.358C161.386 344.868 157.42 349.412 153.102 353.863C149.142 357.938 144.793 362.039 140.175 366.057C135.693 369.931 131.003 373.675 126.225 377.197C123.28 379.376 120.696 381.178 118.626 382.574L127.688 391.635C131.43 390.324 135.28 388.701 139.172 386.796C144.069 384.405 149.147 381.51 154.268 378.187C158.875 375.185 163.55 371.82 168.155 368.192C172.556 364.722 176.912 361.008 181.102 357.154C185.802 352.847 189.467 349.129 191.715 346.767L198.992 353.626L198.985 353.634C196.604 356.136 192.767 360.029 187.865 364.521C183.496 368.539 178.945 372.419 174.345 376.046C169.505 379.859 164.584 383.4 159.719 386.57C154.25 390.118 148.818 393.214 143.564 395.778C138.228 398.391 132.93 400.527 127.823 402.123C127.333 402.277 126.831 402.351 126.333 402.351Z" fill="#333333"/>
<path d="M42.4339 338.428C41.1209 338.428 39.8459 337.91 38.8979 336.964L2.09194 300.157C0.495941 298.561 0.166941 296.094 1.28894 294.136C2.40994 292.178 4.70494 291.214 6.88894 291.783L33.9069 298.825L31.3849 308.502L22.1809 306.103L40.6689 324.59L43.6409 317.377L52.8869 321.187L47.0579 335.333C46.4209 336.879 45.0539 338.004 43.4149 338.331C43.0879 338.396 42.7589 338.428 42.4339 338.428Z" fill="#333333"/>
<path d="M133.376 429.369C132.082 429.369 130.802 428.868 129.839 427.905L93.0319 391.098C91.8499 389.916 91.3369 388.222 91.6649 386.582C91.9919 384.943 93.1169 383.576 94.6629 382.939L108.809 377.11L112.619 386.356L105.406 389.328L123.893 407.816L121.494 398.612L131.171 396.09L138.213 423.108C138.782 425.292 137.818 427.586 135.86 428.708C135.083 429.152 134.227 429.369 133.376 429.369Z" fill="#333333"/>
<path d="M89.164 272.583L65.626 249.044L69.048 245.622L72.574 241.853C72.613 241.89 72.659 241.934 72.698 241.972L96.236 265.511L89.164 272.583Z" fill="#333333"/>
<path d="M180.959 364.378L157.413 340.832L164.485 333.761L188.023 357.299L180.959 364.378Z" fill="#333333"/>
<path d="M76.0859 284.028L54.3409 262.282L61.4049 255.203L83.1499 276.948L76.0859 284.028Z" fill="#333333"/>
<path d="M159.2 365.071C157.92 365.071 156.641 364.583 155.664 363.607L145.989 353.931C144.074 352.032 144.004 348.938 145.86 346.959C147.749 344.944 150.909 344.838 152.923 346.728C152.962 346.765 153.008 346.81 153.047 346.847L162.735 356.536C164.688 358.489 164.688 361.655 162.735 363.607C161.759 364.582 160.48 365.071 159.2 365.071Z" fill="#333333"/>
<path d="M67.7139 298.11C66.4359 298.11 65.1589 297.623 64.1839 296.648L52.9899 285.453C51.0369 283.5 51.0369 280.334 52.9899 278.382C54.9439 276.43 58.1089 276.43 60.0609 278.382L71.2479 289.57C73.2009 291.523 73.2039 294.692 71.2509 296.645C70.2739 297.621 68.9929 298.11 67.7139 298.11Z" fill="#333333"/>
<path d="M153.453 385.917L133.356 365.82C133.318 365.782 133.281 365.743 133.244 365.704L137.013 362.162L140.427 358.748L160.524 378.845L153.453 385.917Z" fill="#333333"/>
<path d="M35.1715 292.159L53.2845 310.272L60.3555 303.201L42.2425 285.088L35.1715 292.159Z" fill="#333333"/>
<path d="M119.722 376.708L137.836 394.822L144.907 387.751L126.793 369.637L119.722 376.708Z" fill="#333333"/>
<path d="M162.803 121.571C161.523 121.571 160.244 121.083 159.267 120.107L141.634 102.474L148.705 95.403L162.802 109.5L170.083 102.219L162.883 95.019L169.954 87.948L180.689 98.683C181.627 99.621 182.153 100.892 182.153 102.219C182.153 103.546 181.626 104.817 180.689 105.755L166.337 120.107C165.362 121.083 164.083 121.571 162.803 121.571Z" fill="#333333"/>
<path d="M326.462 296.575C323.554 295.462 320.969 293.786 318.778 291.596C310.223 283.041 310.227 269.118 318.786 260.559C324.689 254.657 333.28 252.623 341.207 255.251L338.06 264.743C333.746 263.313 329.069 264.419 325.857 267.63C321.197 272.29 321.194 279.869 325.85 284.525C327.041 285.716 328.45 286.629 330.038 287.236L326.462 296.575Z" fill="#333333"/>
<path d="M229.343 224.081C228.703 224.081 228.063 223.837 227.575 223.349C226.598 222.373 226.598 220.79 227.575 219.814L243.796 203.593C244.772 202.616 246.356 202.616 247.331 203.593C248.308 204.569 248.308 206.152 247.331 207.128L231.11 223.349C230.623 223.837 229.983 224.081 229.343 224.081Z" fill="white"/>
<path d="M294.442 291.203C293.162 291.203 291.883 290.715 290.906 289.739L281.582 280.415C279.629 278.462 279.629 275.296 281.582 273.344C283.536 271.392 286.701 271.392 288.653 273.344L297.977 282.668C299.93 284.621 299.93 287.787 297.977 289.739C297.001 290.715 295.721 291.203 294.442 291.203Z" fill="#333333"/>
<path d="M274.646 271.407C273.366 271.407 272.087 270.919 271.11 269.943L253.352 252.185C251.399 250.232 251.399 247.066 253.352 245.114C255.305 243.162 258.47 243.162 260.423 245.114L278.181 262.872C280.134 264.825 280.134 267.991 278.181 269.943C277.205 270.919 275.926 271.407 274.646 271.407Z" fill="#333333"/>
<path d="M179.826 176.587C178.546 176.587 177.267 176.099 176.29 175.123L140.269 139.102C138.316 137.149 138.316 133.983 140.269 132.031C142.222 130.079 145.387 130.079 147.34 132.031L183.361 168.052C185.314 170.005 185.314 173.171 183.361 175.123C182.385 176.098 181.106 176.587 179.826 176.587Z" fill="#333333"/>
<path d="M276.42 205.36L229.343 252.436L177.559 200.652L224.635 153.576L276.42 205.36Z" fill="#158ACC"/>
<path d="M253.21 211.449L235.432 229.227C232.067 232.592 226.619 232.592 223.255 229.227L200.77 206.742C197.405 203.377 197.405 197.929 200.77 194.565L218.548 176.787C221.913 173.422 227.361 173.422 230.725 176.787L253.21 199.272C256.575 202.636 256.575 208.084 253.21 211.449Z" fill="#DD582A"/>
<path d="M246.688 209.349L233.332 222.705C230.804 225.233 226.711 225.233 224.183 222.705L207.29 205.812C204.762 203.284 204.762 199.191 207.29 196.663L220.646 183.307C223.174 180.779 227.267 180.779 229.795 183.307L246.688 200.2C249.216 202.728 249.216 206.821 246.688 209.349Z" fill="#F73E3E"/>
<path d="M229.343 257.437C228.063 257.437 226.784 256.949 225.807 255.973L174.023 204.189C172.07 202.236 172.07 199.07 174.023 197.118L199.364 171.777C201.317 169.825 204.482 169.825 206.435 171.777C208.388 173.73 208.388 176.896 206.435 178.848L184.629 200.654L229.342 245.367L269.347 205.362L224.634 160.649L218.26 167.023C216.307 168.975 213.142 168.975 211.189 167.023C209.236 165.07 209.236 161.904 211.189 159.952L221.098 150.043C223.051 148.091 226.216 148.091 228.169 150.043L279.953 201.827C281.906 203.78 281.906 206.946 279.953 208.898L232.876 255.975C231.903 256.948 230.623 257.437 229.343 257.437Z" fill="#333333"/>
<path d="M228.898 231.304C225.83 231.304 222.762 230.136 220.426 227.801L202.196 209.571C199.932 207.307 198.685 204.299 198.685 201.099C198.685 197.899 199.932 194.891 202.196 192.627L216.609 178.213C221.281 173.542 228.881 173.542 233.553 178.213L251.783 196.443C256.454 201.114 256.454 208.716 251.783 213.387L237.369 227.801C235.034 230.136 231.967 231.304 228.898 231.304ZM225.081 184.704C224.574 184.704 224.066 184.897 223.68 185.284L209.266 199.698C208.76 200.204 208.684 200.793 208.684 201.099C208.684 201.405 208.76 201.994 209.266 202.5L227.497 220.73C228.269 221.502 229.526 221.502 230.299 220.73L244.713 206.316C245.485 205.544 245.485 204.287 244.713 203.514L226.483 185.284C226.096 184.897 225.589 184.704 225.081 184.704Z" fill="#333333"/>
<path d="M226.386 132.198C226.275 132.198 226.163 132.195 226.051 132.187C223.296 132.004 221.21 129.623 221.392 126.868L224.561 78.958C224.743 76.203 227.118 74.115 229.88 74.299C232.635 74.481 234.721 76.863 234.539 79.618L231.37 127.528C231.196 130.171 228.997 132.198 226.386 132.198Z" fill="#333333"/>
<path d="M224.641 158.573C224.53 158.573 224.418 158.57 224.306 158.562C221.551 158.379 219.465 155.998 219.647 153.243L220.105 146.31C220.287 143.555 222.669 141.468 225.424 141.651C228.179 141.834 230.265 144.215 230.083 146.97L229.625 153.903C229.451 156.546 227.252 158.573 224.641 158.573Z" fill="#333333"/>
<path d="M65.4389 218.929C62.9399 218.929 60.7809 217.059 60.4799 214.516C60.1549 211.774 62.1149 209.287 64.8569 208.963L136.271 200.506C139.005 200.182 141.499 202.141 141.824 204.883C142.149 207.625 140.189 210.112 137.447 210.436L66.0329 218.893C65.8339 218.917 65.6349 218.929 65.4389 218.929Z" fill="#333333"/>
<path d="M157.019 208.085C154.52 208.085 152.361 206.215 152.06 203.672C151.735 200.93 153.695 198.443 156.437 198.119L176.971 195.687C179.71 195.366 182.199 197.322 182.524 200.064C182.849 202.806 180.889 205.293 178.147 205.617L157.613 208.049C157.413 208.073 157.215 208.085 157.019 208.085Z" fill="#333333"/>
<path d="M276.416 210.357C273.805 210.357 271.607 208.33 271.432 205.687C271.25 202.932 273.336 200.55 276.091 200.368L319.6 197.488C322.359 197.308 324.737 199.392 324.919 202.147C325.101 204.902 323.015 207.284 320.26 207.466L276.751 210.346C276.638 210.353 276.527 210.357 276.416 210.357Z" fill="#333333"/>
<path d="M336.282 206.394C333.671 206.394 331.473 204.367 331.298 201.724C331.116 198.969 333.202 196.587 335.957 196.405L350.2 195.462C352.956 195.287 355.337 197.366 355.519 200.121C355.701 202.876 353.615 205.258 350.86 205.44L336.617 206.383C336.505 206.39 336.393 206.394 336.282 206.394Z" fill="#333333"/>
<path d="M216.074 369.551C215.878 369.551 215.679 369.539 215.48 369.516C212.738 369.191 210.778 366.705 211.103 363.963L215.426 327.455C215.751 324.713 218.237 322.754 220.979 323.078C223.721 323.403 225.681 325.889 225.356 328.631L221.033 365.139C220.732 367.681 218.572 369.551 216.074 369.551Z" fill="#333333"/>
<path d="M222.55 314.865C222.354 314.865 222.155 314.853 221.956 314.83C219.214 314.505 217.254 312.019 217.579 309.277L224.379 251.849C224.704 249.107 227.186 247.148 229.932 247.472C232.674 247.797 234.634 250.283 234.309 253.025L227.509 310.453C227.207 312.995 225.048 314.865 222.55 314.865Z" fill="#333333"/>
</svg>
